<svg xmlns="http://www.w3.org/2000/svg" width="904.332" height="833.68" viewBox="0 0 904.332 833.68"><defs><style>.a{opacity:0.113;}.b{fill:#d18a62;}</style></defs><g class="a" transform="translate(0 -20)"><g transform="translate(0 20)"><path class="b" d="M315.235,156.568a17.663,17.663,0,1,0,24.979-24.98l-.239-.238A17.664,17.664,0,0,0,315,156.33Z" transform="translate(237.408 61.36)"/><path class="b" d="M837.594,405.047l61.563-61.563a17.663,17.663,0,0,0-12.491-30.152H759.051A385.065,385.065,0,1,0,112.778,677.316a387.809,387.809,0,0,0,70.782,55.991l-53.212,94.01a17.664,17.664,0,0,0,15.37,26.363H236.68a17.663,17.663,0,0,0,15.372-8.962l37.625-66.474a389.7,389.7,0,0,0,190.74,0l37.625,66.474a17.663,17.663,0,0,0,15.372,8.962h90.963a17.662,17.662,0,0,0,15.372-26.362l-53.212-94.01a387.887,387.887,0,0,0,70.782-55.991A383.74,383.74,0,0,0,759.051,496.764H886.668a17.663,17.663,0,0,0,12.491-30.152Zm-32.3-17.663H682.031l38.727-38.727H844.026ZM226.381,818.354H176.011l38.445-67.918a379.776,379.776,0,0,0,40.6,17.265Zm367.7,0h-50.37L515.041,767.7a379.784,379.784,0,0,0,40.6-17.265Zm38.254-166.017a351.3,351.3,0,0,1-77.444,58.573c-.346.168-.7.327-1.037.519-.214.122-.408.261-.615.39a345.159,345.159,0,0,1-67.722,28.361,17.5,17.5,0,0,0-2.743.795,353.151,353.151,0,0,1-195.459,0,17.528,17.528,0,0,0-2.747-.795,345.123,345.123,0,0,1-67.719-28.361c-.207-.129-.4-.268-.615-.39-.341-.193-.689-.352-1.035-.519a351.249,351.249,0,0,1-77.444-58.575A349.721,349.721,0,1,1,722.59,313.332h-9.146a17.665,17.665,0,0,0-12.489,5.173l-46.879,46.879a272.131,272.131,0,0,0-30.79-91.733,17.663,17.663,0,1,0-30.926,17.075,234.547,234.547,0,0,1,28.531,96.661H543.013a159.015,159.015,0,1,0,0,35.324h77.8a236.556,236.556,0,1,1-403.125-185.02c74.152-74.152,189.984-90.581,281.681-39.955a17.663,17.663,0,0,0,17.075-30.926A273.963,273.963,0,0,0,348.7,135.468,272.015,272.015,0,0,0,192.709,597.383,272.009,272.009,0,0,0,654.138,444.776l46.815,46.815a17.664,17.664,0,0,0,12.489,5.173h9.142A348.584,348.584,0,0,1,632.337,652.337Zm-189.6-280.6a17.659,17.659,0,0,0-24.127-6.465l-42.39,24.473a17.662,17.662,0,0,0,0,30.592l42.39,24.473a17.647,17.647,0,0,0,25.108-22.107h63.713a122.689,122.689,0,0,1-34.954,69.762h0a123.611,123.611,0,1,1,34.956-105.088H443.715A17.616,17.616,0,0,0,442.733,371.742Zm278.025,89.695L682.031,422.71H805.3l38.729,38.727Z" transform="translate(0 -20)"/></g></g></svg>