<svg xmlns="http://www.w3.org/2000/svg" width="335.146" height="308.963" viewBox="0 0 335.146 308.963"><defs><style>.a{fill:#b74e64;}</style></defs><g transform="translate(0 -20)"><g transform="translate(0 20)"><path class="a" d="M311.828,137.439a6.546,6.546,0,1,0,9.257-9.258l-.088-.088a6.546,6.546,0,0,0-9.258,9.258Z" transform="translate(-107.018 -56.675)"/><path class="a" d="M310.413,162.7l22.815-22.815a6.546,6.546,0,0,0-4.629-11.174H281.305A142.706,142.706,0,1,0,41.8,263.6a143.722,143.722,0,0,0,26.232,20.75l-19.721,34.84a6.546,6.546,0,0,0,5.7,9.77H87.714a6.546,6.546,0,0,0,5.7-3.321l13.944-24.635a144.423,144.423,0,0,0,70.688,0l13.944,24.635a6.546,6.546,0,0,0,5.7,3.321h33.711a6.546,6.546,0,0,0,5.7-9.77l-19.721-34.84A143.752,143.752,0,0,0,243.6,263.6a142.215,142.215,0,0,0,37.7-66.913H328.6a6.546,6.546,0,0,0,4.629-11.174Zm-11.969-6.546H252.762L267.114,141.8H312.8ZM83.9,315.871H65.23L79.477,290.7a140.745,140.745,0,0,0,15.046,6.4Zm136.271,0H201.5L190.875,297.1a140.746,140.746,0,0,0,15.046-6.4Zm14.177-61.526a130.191,130.191,0,0,1-28.7,21.707c-.128.062-.258.121-.384.192-.079.045-.151.1-.228.145a127.916,127.916,0,0,1-25.1,10.511,6.485,6.485,0,0,0-1.017.295,130.878,130.878,0,0,1-72.437,0,6.5,6.5,0,0,0-1.018-.295,127.9,127.9,0,0,1-25.1-10.511c-.077-.048-.149-.1-.228-.145-.126-.071-.255-.13-.384-.192a130.173,130.173,0,0,1-28.7-21.708A129.607,129.607,0,1,1,267.793,128.709H264.4a6.547,6.547,0,0,0-4.629,1.917L242.4,148a100.852,100.852,0,0,0-11.411-34,6.546,6.546,0,1,0-11.461,6.328A86.923,86.923,0,0,1,230.1,156.154H201.242a58.931,58.931,0,1,0,0,13.091h28.834a87.627,87.627,0,1,1-45.007-83.376A6.546,6.546,0,1,0,191.4,74.408a101.531,101.531,0,0,0-62.166-11.615,100.808,100.808,0,1,0,113.2,114.63l17.35,17.35a6.546,6.546,0,0,0,4.629,1.917h3.388A129.186,129.186,0,0,1,234.345,254.345ZM164.078,150.356a6.545,6.545,0,0,0-8.942-2.4l-15.71,9.07a6.546,6.546,0,0,0,0,11.337l15.71,9.07a6.54,6.54,0,0,0,9.3-8.193h23.612A45.469,45.469,0,0,1,175.1,195.1h0a45.81,45.81,0,1,1,12.955-38.946H164.442A6.529,6.529,0,0,0,164.078,150.356ZM267.114,183.6l-14.352-14.352h45.683L312.8,183.6Z" transform="translate(0 -20)"/></g></g></svg>