<svg xmlns="http://www.w3.org/2000/svg" width="406" height="406.143" viewBox="0 0 406 406.143"><defs><style>.a{fill:#b74e64;}</style></defs><g transform="translate(-0.003 0)"><g transform="translate(33.848 40.619)"><rect class="a" width="88" height="14" transform="translate(0.154 -0.477)"/></g><g transform="translate(33.848 67.696)"><rect class="a" width="88" height="13" transform="translate(0.154 0.447)"/></g><g transform="translate(33.848 94.772)"><rect class="a" width="61" height="13" transform="translate(0.154 0.371)"/></g><g transform="translate(33.848 121.848)"><rect class="a" width="61" height="13" transform="translate(0.154 0.295)"/></g><g transform="translate(0.003 392.612)"><rect class="a" width="406" height="14" transform="translate(0 -0.469)"/></g><g transform="translate(26.504 -0.001)"><path class="a" d="M396.718,57.9,369.642,3.748A6.768,6.768,0,0,0,360.563.713l-.005,0L306.4,27.792a6.772,6.772,0,1,0,6.052,12.117l39.22-19.6-10.7,30.556A361.23,361.23,0,0,1,31.323,291.076l1.151,13.538A374.775,374.775,0,0,0,353.761,55.335l10.925-31.219L384.6,63.953A6.772,6.772,0,0,0,396.718,57.9Z" transform="translate(-31.323 0.001)"/></g><g transform="translate(27.079 324.921)"><path class="a" d="M86.156,384.006H38.772A6.769,6.769,0,0,0,32,390.775V431.39a6.769,6.769,0,0,0,6.769,6.769H86.156a6.769,6.769,0,0,0,6.769-6.769V390.775A6.769,6.769,0,0,0,86.156,384.006Zm-6.769,40.615H45.541V397.544H79.387Z" transform="translate(-32.003 -384.006)"/></g><g transform="translate(101.539 304.614)"><path class="a" d="M174.156,360.006H126.772A6.769,6.769,0,0,0,120,366.775V427.7a6.769,6.769,0,0,0,6.769,6.769h47.384a6.769,6.769,0,0,0,6.769-6.769V366.775A6.769,6.769,0,0,0,174.156,360.006Zm-6.769,60.922H133.541V373.544h33.845Z" transform="translate(-120.003 -360.006)"/></g><g transform="translate(175.999 270.768)"><path class="a" d="M262.156,320.006H214.772A6.769,6.769,0,0,0,208,326.775v94.767a6.769,6.769,0,0,0,6.769,6.769h47.384a6.769,6.769,0,0,0,6.769-6.769V326.775A6.769,6.769,0,0,0,262.156,320.006Zm-6.769,94.767H221.541V333.544h33.845Z" transform="translate(-208.003 -320.006)"/></g><g transform="translate(250.459 223.385)"><path class="a" d="M350.156,264.006H302.772A6.769,6.769,0,0,0,296,270.775V412.926a6.769,6.769,0,0,0,6.769,6.769h47.384a6.769,6.769,0,0,0,6.769-6.769V270.775A6.769,6.769,0,0,0,350.156,264.006Zm-6.769,142.151H309.541V277.544h33.845Z" transform="translate(-296.003 -264.006)"/></g><g transform="translate(324.919 128.618)"><path class="a" d="M438.156,152.006H390.772A6.769,6.769,0,0,0,384,158.775V395.693a6.769,6.769,0,0,0,6.769,6.769h47.384a6.769,6.769,0,0,0,6.769-6.769V158.775A6.769,6.769,0,0,0,438.156,152.006Zm-6.769,236.918H397.541V165.544h33.845Z" transform="translate(-384.003 -152.006)"/></g></g></svg>