<svg xmlns="http://www.w3.org/2000/svg" width="1133" height="1133.001" viewBox="0 0 1133 1133.001"><defs><style>.a{opacity:0.11;}.b{fill:#d18a62;}</style></defs><g class="a" transform="translate(0.198 0.001)"><g transform="translate(96.084 112.327)"><g transform="translate(0 0)"><rect class="b" width="245" height="40" transform="translate(-0.281 -0.326)"/></g></g><g transform="translate(96.084 190.093)"><g transform="translate(0 0)"><rect class="b" width="245" height="37" transform="translate(-0.281 -0.093)"/></g></g><g transform="translate(96.084 265.389)"><g transform="translate(0 0)"><rect class="b" width="169" height="36" transform="translate(-0.281 -0.389)"/></g></g><g transform="translate(96.084 340.685)"><g transform="translate(0 0)"><rect class="b" width="169" height="35" transform="translate(-0.281 0.314)"/></g></g><g transform="translate(-0.197 1094.884)"><g transform="translate(0 0)"><rect class="b" width="1133" height="38" transform="translate(0 0.116)"/></g></g><g transform="translate(74.036 -0.001)"><path class="b" d="M1050.586,161.515,975.057,10.457A18.88,18.88,0,0,0,949.731,1.99L949.717,2,798.659,77.526a18.89,18.89,0,0,0,16.881,33.8l109.4-54.664L895.091,141.9A1007.645,1007.645,0,0,1,31.323,811.951l3.21,37.765A1045.428,1045.428,0,0,0,930.759,154.358l30.476-87.085L1016.787,178.4a18.89,18.89,0,1,0,33.8-16.881Z" transform="translate(-31.323 0.001)"/></g><g transform="translate(75.641 906.362)"><path class="b" d="M183.061,384.006H50.885A18.883,18.883,0,0,0,32,402.888V516.182a18.883,18.883,0,0,0,18.882,18.882H183.061a18.883,18.883,0,0,0,18.882-18.882V402.888A18.883,18.883,0,0,0,183.061,384.006ZM164.179,497.3H69.767V421.77h94.411Z" transform="translate(-32.003 -384.006)"/></g><g transform="translate(283.345 849.716)"><path class="b" d="M271.061,360.006H138.885A18.883,18.883,0,0,0,120,378.888v169.94a18.883,18.883,0,0,0,18.882,18.882H271.061a18.883,18.883,0,0,0,18.882-18.882V378.888A18.883,18.883,0,0,0,271.061,360.006Zm-18.882,169.94H157.767V397.771h94.411Z" transform="translate(-120.003 -360.006)"/></g><g transform="translate(491.05 755.305)"><path class="b" d="M359.061,320.006H226.885A18.883,18.883,0,0,0,208,338.888V603.24a18.883,18.883,0,0,0,18.882,18.882H359.061a18.883,18.883,0,0,0,18.882-18.882V338.888A18.883,18.883,0,0,0,359.061,320.006ZM340.179,584.357H245.767V357.771h94.411Z" transform="translate(-208.003 -320.006)"/></g><g transform="translate(698.755 623.129)"><path class="b" d="M447.061,264.006H314.885A18.883,18.883,0,0,0,296,282.888V679.415A18.883,18.883,0,0,0,314.885,698.3H447.061a18.883,18.883,0,0,0,18.882-18.882V282.888A18.883,18.883,0,0,0,447.061,264.006ZM428.179,660.533H333.767V301.77h94.411Z" transform="translate(-296.003 -264.006)"/></g><g transform="translate(906.459 358.777)"><path class="b" d="M535.061,152.006H402.885A18.883,18.883,0,0,0,384,170.888V831.766a18.883,18.883,0,0,0,18.882,18.882H535.061a18.883,18.883,0,0,0,18.882-18.882V170.888A18.883,18.883,0,0,0,535.061,152.006ZM516.179,812.884H421.768V189.771h94.411Z" transform="translate(-384.003 -152.006)"/></g></g></svg>