<svg xmlns="http://www.w3.org/2000/svg" width="389.093" height="389.089" viewBox="0 0 389.093 389.089"><defs><style>.a{fill:#fff;}</style></defs><g transform="translate(-2 -2)"><path class="a" d="M2.519,162.042a6.48,6.48,0,0,0,5.1,5.823l22.6,4.877A102.45,102.45,0,0,0,33.251,184.1L16.144,199.6a6.483,6.483,0,0,0-1.5,7.594A129.672,129.672,0,0,0,25,225.256a6.485,6.485,0,0,0,7.321,2.484l21.964-7.075a103.911,103.911,0,0,0,8.365,8.366l-7.075,21.964a6.485,6.485,0,0,0,2.484,7.321,129.67,129.67,0,0,0,18.06,10.35,6.49,6.49,0,0,0,7.594-1.5l15.5-17.107a104.4,104.4,0,0,0,11.368,3.035l4.877,22.6a6.494,6.494,0,0,0,5.817,5.1c3.45.272,6.906.519,10.428.519s6.978-.246,10.428-.519a6.48,6.48,0,0,0,5.823-5.1l4.877-22.6a102.573,102.573,0,0,0,11.368-3.035l15.5,17.107a6.477,6.477,0,0,0,7.594,1.5,130.331,130.331,0,0,0,18.06-10.35,6.485,6.485,0,0,0,2.484-7.321l-7.075-21.964a104.9,104.9,0,0,0,8.365-8.359l21.964,7.075a6.475,6.475,0,0,0,7.321-2.484,129.675,129.675,0,0,0,10.35-18.06,6.483,6.483,0,0,0-1.5-7.594l-17.107-15.5a104.4,104.4,0,0,0,3.035-11.368l22.6-4.877a6.494,6.494,0,0,0,5.1-5.817c.266-3.456.512-6.913.512-10.434s-.246-6.978-.519-10.428a6.48,6.48,0,0,0-5.1-5.823l-22.6-4.877a102.558,102.558,0,0,0-3.035-11.368l17.107-15.5a6.483,6.483,0,0,0,1.5-7.594,130.327,130.327,0,0,0-10.35-18.06,6.475,6.475,0,0,0-7.321-2.484l-21.964,7.075a103.9,103.9,0,0,0-8.365-8.365l7.075-21.964a6.485,6.485,0,0,0-2.484-7.321,129.673,129.673,0,0,0-18.06-10.35,6.471,6.471,0,0,0-7.594,1.5l-15.5,17.107a104.4,104.4,0,0,0-11.368-3.035l-4.877-22.6a6.494,6.494,0,0,0-5.817-5.1,131.8,131.8,0,0,0-20.862,0,6.48,6.48,0,0,0-5.823,5.1l-4.877,22.6A102.447,102.447,0,0,0,99.2,53.161L83.7,36.053a6.481,6.481,0,0,0-7.594-1.5,129.673,129.673,0,0,0-18.06,10.35,6.485,6.485,0,0,0-2.484,7.321L62.64,74.191a103.906,103.906,0,0,0-8.365,8.365L32.317,75.481A6.469,6.469,0,0,0,25,77.965a129.673,129.673,0,0,0-10.35,18.06,6.483,6.483,0,0,0,1.5,7.594l17.107,15.5a104.4,104.4,0,0,0-3.035,11.368l-22.6,4.877a6.494,6.494,0,0,0-5.1,5.817C2.246,144.636,2,148.093,2,151.614s.246,6.978.519,10.428Zm12.587-15.025,22.062-4.766a6.487,6.487,0,0,0,5.032-5.3A90.4,90.4,0,0,1,46.862,119.5a6.478,6.478,0,0,0-1.712-7.1L28.491,97.3c1.453-2.782,2.97-5.447,4.539-7.97L54.4,96.22a6.509,6.509,0,0,0,7.01-2.062A91.181,91.181,0,0,1,74.242,81.331a6.477,6.477,0,0,0,2.062-7.01L69.417,52.946q3.784-2.364,7.97-4.539l15.1,16.666a6.493,6.493,0,0,0,7.107,1.712,89.967,89.967,0,0,1,17.444-4.663,6.487,6.487,0,0,0,5.3-5.032l4.76-22.062a85.413,85.413,0,0,1,9.2,0l4.766,22.062a6.487,6.487,0,0,0,5.3,5.032,90.4,90.4,0,0,1,17.451,4.663,6.475,6.475,0,0,0,7.1-1.712l15.1-16.66c2.782,1.453,5.447,2.97,7.97,4.539l-6.887,21.374a6.492,6.492,0,0,0,2.062,7.01,91.18,91.18,0,0,1,12.827,12.827,6.462,6.462,0,0,0,7.01,2.062l21.374-6.887q2.364,3.784,4.539,7.963l-16.666,15.1a6.485,6.485,0,0,0-1.712,7.107,89.969,89.969,0,0,1,4.663,17.444,6.487,6.487,0,0,0,5.032,5.3l22.062,4.76c.084,1.524.143,3.061.143,4.6s-.052,3.08-.136,4.6l-22.062,4.766a6.487,6.487,0,0,0-5.032,5.3,90.4,90.4,0,0,1-4.663,17.451,6.478,6.478,0,0,0,1.712,7.1l16.66,15.1c-1.453,2.782-2.97,5.447-4.539,7.97l-21.374-6.887a6.455,6.455,0,0,0-7.01,2.062A91.524,91.524,0,0,1,189.154,221.9a6.482,6.482,0,0,0-2.062,7l6.887,21.374q-3.784,2.364-7.963,4.539l-15.1-16.666a6.508,6.508,0,0,0-7.107-1.712,89.968,89.968,0,0,1-17.444,4.663,6.487,6.487,0,0,0-5.3,5.032l-4.76,22.062a85.417,85.417,0,0,1-9.2,0l-4.766-22.062a6.487,6.487,0,0,0-5.3-5.032,90.4,90.4,0,0,1-17.451-4.663,6.469,6.469,0,0,0-7.1,1.712l-15.1,16.66c-2.782-1.453-5.447-2.97-7.97-4.539l6.887-21.374a6.492,6.492,0,0,0-2.062-7.01,91.181,91.181,0,0,1-12.827-12.827,6.476,6.476,0,0,0-7.01-2.062l-21.374,6.887q-2.364-3.784-4.539-7.97l16.666-15.1a6.485,6.485,0,0,0,1.712-7.107,89.968,89.968,0,0,1-4.663-17.444,6.487,6.487,0,0,0-5.032-5.3l-22.075-4.747c-.078-1.524-.136-3.061-.136-4.6S15.022,148.534,15.106,147.016Z" transform="translate(0 109.778)"/><path class="a" d="M181.572,94.309a6.48,6.48,0,0,0,4.494-5.441,76.266,76.266,0,0,0,.571-9.053,77.577,77.577,0,0,0-.564-9.053,6.48,6.48,0,0,0-4.494-5.441L163.6,59.674q-.807-2.208-1.79-4.332l8.716-16.7a6.5,6.5,0,0,0-.661-7.023,78.514,78.514,0,0,0-12.834-12.834A6.5,6.5,0,0,0,150,18.119l-16.712,8.716q-2.121-.973-4.332-1.783L123.312,7.068a6.48,6.48,0,0,0-5.441-4.494,71.738,71.738,0,0,0-18.112,0,6.48,6.48,0,0,0-5.441,4.494L88.67,25.051q-2.208.807-4.332,1.79l-16.7-8.716a6.513,6.513,0,0,0-7.023.661A78.516,78.516,0,0,0,47.783,31.62a6.487,6.487,0,0,0-.668,7.023l8.709,16.7q-.973,2.121-1.783,4.332L36.058,65.322a6.48,6.48,0,0,0-4.494,5.441,72.914,72.914,0,0,0,0,18.106,6.48,6.48,0,0,0,4.494,5.441l17.983,5.648q.807,2.208,1.79,4.332l-8.716,16.7a6.5,6.5,0,0,0,.661,7.023A78.515,78.515,0,0,0,60.61,140.845a6.5,6.5,0,0,0,7.023.668l16.7-8.709q2.121.973,4.332,1.783l5.648,17.983a6.48,6.48,0,0,0,5.441,4.494,76.645,76.645,0,0,0,9.066.571,77.581,77.581,0,0,0,9.053-.564,6.48,6.48,0,0,0,5.441-4.494l5.648-17.983q2.208-.807,4.332-1.79l16.7,8.716a6.487,6.487,0,0,0,7.023-.661,78.516,78.516,0,0,0,12.834-12.834,6.487,6.487,0,0,0,.668-7.023L161.8,104.3q.982-2.121,1.79-4.332Zm-25.032-5.733a6.5,6.5,0,0,0-4.267,4.325,45.68,45.68,0,0,1-3.463,8.391,6.468,6.468,0,0,0-.039,6.07L157,123.135A66.181,66.181,0,0,1,152.137,128l-15.771-8.229a6.486,6.486,0,0,0-6.07.039,45.675,45.675,0,0,1-8.391,3.463,6.5,6.5,0,0,0-4.325,4.267l-5.344,17.016a54.636,54.636,0,0,1-6.835,0l-5.344-17.016a6.5,6.5,0,0,0-4.325-4.267,45.061,45.061,0,0,1-8.385-3.463,6.481,6.481,0,0,0-6.076-.039L65.5,128a66.183,66.183,0,0,1-4.864-4.864l8.229-15.771a6.486,6.486,0,0,0-.039-6.07A45.678,45.678,0,0,1,65.363,92.9,6.5,6.5,0,0,0,61.1,88.577L44.08,83.233c-.078-1.187-.11-2.322-.11-3.418s.032-2.231.11-3.418L61.1,71.055a6.5,6.5,0,0,0,4.267-4.325,45.064,45.064,0,0,1,3.463-8.385,6.481,6.481,0,0,0,.039-6.076L60.636,36.5A66.178,66.178,0,0,1,65.5,31.633l15.771,8.229a6.5,6.5,0,0,0,6.07-.039,45.676,45.676,0,0,1,8.391-3.463,6.5,6.5,0,0,0,4.325-4.267L105.4,15.077a54.631,54.631,0,0,1,6.835,0l5.344,17.016a6.5,6.5,0,0,0,4.325,4.267,45.061,45.061,0,0,1,8.385,3.463,6.481,6.481,0,0,0,6.076.039l15.771-8.229A66.185,66.185,0,0,1,157,36.5l-8.229,15.771a6.486,6.486,0,0,0,.039,6.07,45.679,45.679,0,0,1,3.463,8.391,6.5,6.5,0,0,0,4.267,4.325L173.557,76.4c.078,1.187.11,2.322.11,3.418s-.032,2.231-.11,3.418Z" transform="translate(159.061 0)"/><path class="a" d="M166.912,78.641l-11.141-3.956a52.557,52.557,0,0,0-2.185-5.3L158.65,58.72a6.457,6.457,0,0,0-.752-6.77A65.264,65.264,0,0,0,146.75,40.8a6.487,6.487,0,0,0-6.777-.752L129.3,45.108a51.793,51.793,0,0,0-5.292-2.179l-3.962-11.141a6.5,6.5,0,0,0-5.331-4.267,59.759,59.759,0,0,0-15.739,0,6.478,6.478,0,0,0-5.331,4.267L89.69,42.929a52.558,52.558,0,0,0-5.3,2.185L73.724,40.05a6.489,6.489,0,0,0-6.77.752A65.265,65.265,0,0,0,55.8,51.95a6.5,6.5,0,0,0-.752,6.777L60.112,69.4a51.8,51.8,0,0,0-2.179,5.292L46.792,78.654a6.5,6.5,0,0,0-4.267,5.331A63.531,63.531,0,0,0,42,91.845a65,65,0,0,0,.519,7.866,6.478,6.478,0,0,0,4.267,5.331L57.927,109a52.557,52.557,0,0,0,2.185,5.3l-5.065,10.668a6.457,6.457,0,0,0,.752,6.77,65.265,65.265,0,0,0,11.147,11.154,6.5,6.5,0,0,0,6.777.752L84.4,138.575a51.794,51.794,0,0,0,5.292,2.179l3.962,11.141a6.5,6.5,0,0,0,5.331,4.267,62.633,62.633,0,0,0,7.866.532,65,65,0,0,0,7.866-.519,6.478,6.478,0,0,0,5.331-4.267L124,140.767a52.554,52.554,0,0,0,5.3-2.185l10.668,5.065a6.443,6.443,0,0,0,6.77-.752,65.265,65.265,0,0,0,11.154-11.148,6.5,6.5,0,0,0,.752-6.777L153.579,114.3A51.787,51.787,0,0,0,155.758,109l11.141-3.962a6.5,6.5,0,0,0,4.267-5.331,62.632,62.632,0,0,0,.532-7.866,65,65,0,0,0-.519-7.866,6.487,6.487,0,0,0-4.267-5.337Zm-8.249,15.57-10.279,3.651a6.485,6.485,0,0,0-4.079,4.377,38.589,38.589,0,0,1-3.6,8.735,6.5,6.5,0,0,0-.214,5.973l4.656,9.812q-1.615,1.77-3.379,3.379l-9.812-4.656a6.5,6.5,0,0,0-5.973.214,38.61,38.61,0,0,1-8.729,3.6,6.508,6.508,0,0,0-4.384,4.079l-3.651,10.279a44.344,44.344,0,0,1-4.734,0l-3.651-10.279a6.485,6.485,0,0,0-4.377-4.079,38.588,38.588,0,0,1-8.735-3.6,6.538,6.538,0,0,0-5.973-.214l-9.812,4.656q-1.77-1.615-3.379-3.379l4.656-9.812A6.481,6.481,0,0,0,73,110.975a38.609,38.609,0,0,1-3.6-8.729,6.508,6.508,0,0,0-4.079-4.384L55.048,94.212c-.052-.785-.078-1.569-.078-2.367s.026-1.589.065-2.367L65.313,85.82a6.462,6.462,0,0,0,4.073-4.377,38.779,38.779,0,0,1,3.606-8.735,6.5,6.5,0,0,0,.214-5.973l-4.656-9.812q1.615-1.77,3.379-3.379L81.739,58.2a6.462,6.462,0,0,0,5.973-.214,38.61,38.61,0,0,1,8.729-3.6,6.508,6.508,0,0,0,4.384-4.079l3.651-10.279a44.336,44.336,0,0,1,4.734,0l3.651,10.279a6.485,6.485,0,0,0,4.377,4.079,38.588,38.588,0,0,1,8.735,3.6,6.462,6.462,0,0,0,5.973.214l9.812-4.656q1.77,1.615,3.379,3.379l-4.656,9.812a6.481,6.481,0,0,0,.214,5.973,38.61,38.61,0,0,1,3.6,8.729,6.508,6.508,0,0,0,4.079,4.384l10.279,3.651c.052.791.078,1.576.078,2.373s-.026,1.582-.065,2.367Z" transform="translate(219.395 137.123)"/><path class="a" d="M82.334,173.667A71.334,71.334,0,1,0,11,102.334,71.418,71.418,0,0,0,82.334,173.667Zm0-129.7A58.364,58.364,0,1,1,23.97,102.334,58.435,58.435,0,0,1,82.334,43.97Z" transform="translate(49.364 159.059)"/><path class="a" d="M2.022,91.54l9.961,8.307A155.321,155.321,0,0,1,131.577,43.817c3.3,0,6.6.188,9.889.4L133.477,52.2l9.17,9.17L162.1,41.917a6.478,6.478,0,0,0,0-9.17L142.647,13.293l-9.17,9.17,8.813,8.813c-3.567-.227-7.14-.428-10.713-.428A168.265,168.265,0,0,0,2.022,91.54Z" transform="translate(0.121 61.938)"/><path class="a" d="M70.424,9a32.424,32.424,0,1,0,32.424,32.424A32.461,32.461,0,0,0,70.424,9Zm0,51.879A19.455,19.455,0,1,1,89.879,41.424,19.478,19.478,0,0,1,70.424,60.879Z" transform="translate(197.456 38.391)"/><path class="a" d="M73.94,33A25.939,25.939,0,1,0,99.879,58.94,25.966,25.966,0,0,0,73.94,33Zm0,38.909a12.97,12.97,0,1,1,12.97-12.97A12.983,12.983,0,0,1,73.94,71.909Z" transform="translate(252.304 170.028)"/><path class="a" d="M100.561,10.615,68.137,4.13A6.47,6.47,0,0,0,60.5,9.214L54.019,41.639l12.717,2.549,3.5-17.457a97.3,97.3,0,0,1,9.6,42.119,96.233,96.233,0,0,1-21.335,60.8l10.123,8.113A110.558,110.558,0,0,0,92.805,68.849,110.383,110.383,0,0,0,81.418,20.012l16.6,3.32Z" transform="translate(285.318 10.967)"/></g></svg>