<svg xmlns="http://www.w3.org/2000/svg" width="752.001" height="751.995" viewBox="0 0 752.001 751.995"><defs><style>.a{opacity:0.11;}.b{fill:#b74e64;}</style></defs><g class="a" transform="translate(-2 -2)"><path class="b" d="M3,292.645A12.524,12.524,0,0,0,12.854,303.9l43.679,9.425A198.005,198.005,0,0,0,62.4,335.283L29.335,365.238a12.529,12.529,0,0,0-2.9,14.677,250.618,250.618,0,0,0,20,34.905,12.533,12.533,0,0,0,14.15,4.8l42.45-13.674a200.831,200.831,0,0,0,16.168,16.168l-13.674,42.451a12.533,12.533,0,0,0,4.8,14.15,250.618,250.618,0,0,0,34.905,20,12.544,12.544,0,0,0,14.677-2.9l29.955-33.063a201.779,201.779,0,0,0,21.971,5.866l9.425,43.679a12.551,12.551,0,0,0,11.242,9.851c6.668.526,13.348,1,20.154,1s13.486-.476,20.154-1a12.524,12.524,0,0,0,11.255-9.851l9.425-43.679a198.244,198.244,0,0,0,21.971-5.866l29.955,33.063a12.518,12.518,0,0,0,14.677,2.9,251.891,251.891,0,0,0,34.905-20,12.533,12.533,0,0,0,4.8-14.15l-13.674-42.451A202.732,202.732,0,0,0,402.3,405.959l42.45,13.674a12.515,12.515,0,0,0,14.15-4.8,250.624,250.624,0,0,0,20-34.905,12.529,12.529,0,0,0-2.9-14.677L442.948,335.3a201.771,201.771,0,0,0,5.866-21.971l43.679-9.425a12.551,12.551,0,0,0,9.851-11.242c.514-6.68.99-13.361.99-20.166s-.476-13.486-1-20.154a12.523,12.523,0,0,0-9.851-11.255L448.8,231.657a198.209,198.209,0,0,0-5.866-21.971L476,179.732a12.529,12.529,0,0,0,2.9-14.677,251.884,251.884,0,0,0-20-34.905,12.515,12.515,0,0,0-14.15-4.8l-42.45,13.674a200.807,200.807,0,0,0-16.168-16.168L399.8,80.4a12.533,12.533,0,0,0-4.8-14.15,250.621,250.621,0,0,0-34.905-20,12.507,12.507,0,0,0-14.677,2.9L315.459,82.21a201.776,201.776,0,0,0-21.971-5.866l-9.425-43.679a12.551,12.551,0,0,0-11.242-9.851,254.733,254.733,0,0,0-40.32,0,12.524,12.524,0,0,0-11.255,9.851l-9.425,43.679a198,198,0,0,0-21.958,5.866L159.908,49.147a12.525,12.525,0,0,0-14.677-2.9,250.62,250.62,0,0,0-34.905,20,12.533,12.533,0,0,0-4.8,14.15l13.674,42.45a200.819,200.819,0,0,0-16.168,16.168L60.593,125.35a12.5,12.5,0,0,0-14.15,4.8,250.621,250.621,0,0,0-20,34.905,12.529,12.529,0,0,0,2.9,14.677L62.4,209.686a201.774,201.774,0,0,0-5.866,21.971l-43.679,9.425A12.551,12.551,0,0,0,3,252.325c-.526,6.68-1,13.361-1,20.166s.476,13.486,1,20.154ZM27.33,263.6l42.638-9.212a12.538,12.538,0,0,0,9.726-10.24,174.726,174.726,0,0,1,9.011-33.727A12.519,12.519,0,0,0,85.4,196.7L53.2,167.524c2.807-5.377,5.74-10.528,8.773-15.4l41.31,13.31a12.581,12.581,0,0,0,13.549-3.986,176.227,176.227,0,0,1,24.791-24.791,12.519,12.519,0,0,0,3.986-13.549L132.3,81.8q7.313-4.568,15.4-8.773l29.178,32.211a12.55,12.55,0,0,0,13.737,3.309,173.881,173.881,0,0,1,33.715-9.011,12.538,12.538,0,0,0,10.24-9.726l9.2-42.638a165.08,165.08,0,0,1,17.785,0L270.765,89.8A12.538,12.538,0,0,0,281,99.531a174.725,174.725,0,0,1,33.727,9.011,12.513,12.513,0,0,0,13.724-3.309l29.178-32.2c5.377,2.807,10.528,5.74,15.4,8.773l-13.31,41.31a12.546,12.546,0,0,0,3.986,13.549A176.224,176.224,0,0,1,388.5,161.458a12.489,12.489,0,0,0,13.549,3.986l41.31-13.31q4.568,7.313,8.773,15.391L419.925,196.7a12.534,12.534,0,0,0-3.309,13.737,173.883,173.883,0,0,1,9.012,33.715,12.538,12.538,0,0,0,9.726,10.24l42.638,9.2c.163,2.945.276,5.916.276,8.9s-.1,5.953-.263,8.886l-42.638,9.212a12.538,12.538,0,0,0-9.726,10.24,174.72,174.72,0,0,1-9.012,33.727,12.519,12.519,0,0,0,3.309,13.724l32.2,29.178c-2.807,5.377-5.74,10.528-8.773,15.4l-41.31-13.31a12.476,12.476,0,0,0-13.549,3.986,176.89,176.89,0,0,1-24.791,24.791,12.527,12.527,0,0,0-3.986,13.536l13.31,41.31q-7.313,4.568-15.391,8.773l-29.178-32.211a12.578,12.578,0,0,0-13.737-3.309,173.881,173.881,0,0,1-33.715,9.012,12.538,12.538,0,0,0-10.24,9.726l-9.2,42.638a165.091,165.091,0,0,1-17.785,0l-9.212-42.638a12.538,12.538,0,0,0-10.24-9.726,174.724,174.724,0,0,1-33.727-9.012,12.5,12.5,0,0,0-13.724,3.309l-29.178,32.2c-5.377-2.807-10.528-5.74-15.4-8.773l13.31-41.31a12.547,12.547,0,0,0-3.986-13.549,176.227,176.227,0,0,1-24.791-24.791,12.516,12.516,0,0,0-13.549-3.986l-41.31,13.31q-4.568-7.313-8.773-15.4l32.211-29.178a12.534,12.534,0,0,0,3.309-13.737A173.882,173.882,0,0,1,79.719,300.8a12.538,12.538,0,0,0-9.726-10.24L27.33,281.39c-.15-2.945-.263-5.916-.263-8.9S27.167,266.538,27.33,263.6Z" transform="translate(0 230.837)"/><path class="b" d="M322.012,180.406a12.523,12.523,0,0,0,8.686-10.515,147.4,147.4,0,0,0,1.1-17.5,149.929,149.929,0,0,0-1.09-17.5,12.523,12.523,0,0,0-8.686-10.515l-34.755-10.917q-1.56-4.268-3.459-8.372L300.655,72.82a12.562,12.562,0,0,0-1.278-13.574,151.746,151.746,0,0,0-24.8-24.8A12.564,12.564,0,0,0,261,33.152L228.7,50q-4.1-1.88-8.372-3.447L209.412,11.8A12.523,12.523,0,0,0,198.9,3.11a138.649,138.649,0,0,0-35.006,0A12.523,12.523,0,0,0,153.376,11.8L142.459,46.55q-4.268,1.56-8.372,3.459L101.813,33.165A12.588,12.588,0,0,0,88.24,34.443a151.747,151.747,0,0,0-24.8,24.8A12.537,12.537,0,0,0,62.145,72.82l16.832,32.273q-1.88,4.1-3.447,8.372L40.776,124.382A12.523,12.523,0,0,0,32.09,134.9a140.921,140.921,0,0,0,0,34.993,12.523,12.523,0,0,0,8.686,10.515l34.755,10.917q1.56,4.268,3.459,8.372L62.145,231.969a12.562,12.562,0,0,0,1.278,13.574,151.747,151.747,0,0,0,24.8,24.8,12.561,12.561,0,0,0,13.574,1.291L134.074,254.8q4.1,1.88,8.372,3.447l10.917,34.755a12.523,12.523,0,0,0,10.515,8.686,148.133,148.133,0,0,0,17.522,1.1,149.942,149.942,0,0,0,17.5-1.09,12.523,12.523,0,0,0,10.516-8.686l10.917-34.755q4.268-1.56,8.372-3.459l32.273,16.845a12.537,12.537,0,0,0,13.574-1.278,151.747,151.747,0,0,0,24.8-24.8,12.537,12.537,0,0,0,1.291-13.574L283.8,199.72q1.9-4.1,3.459-8.372Zm-48.379-11.079a12.569,12.569,0,0,0-8.247,8.36,88.284,88.284,0,0,1-6.693,16.218,12.5,12.5,0,0,0-.075,11.731l15.9,30.481a127.91,127.91,0,0,1-9.4,9.4l-30.481-15.9a12.535,12.535,0,0,0-11.731.075,88.277,88.277,0,0,1-16.218,6.693,12.569,12.569,0,0,0-8.36,8.247l-10.327,32.888a105.588,105.588,0,0,1-13.21,0l-10.327-32.888a12.569,12.569,0,0,0-8.36-8.247,87.09,87.09,0,0,1-16.206-6.693,12.525,12.525,0,0,0-11.744-.075l-30.481,15.9a127.912,127.912,0,0,1-9.4-9.4l15.9-30.481a12.536,12.536,0,0,0-.075-11.731,88.281,88.281,0,0,1-6.693-16.218,12.569,12.569,0,0,0-8.247-8.36L56.28,159c-.15-2.294-.213-4.487-.213-6.605s.063-4.311.213-6.605l32.887-10.327a12.569,12.569,0,0,0,8.247-8.36,87.094,87.094,0,0,1,6.693-16.206,12.525,12.525,0,0,0,.075-11.744l-15.9-30.481a127.9,127.9,0,0,1,9.4-9.4l30.481,15.9A12.572,12.572,0,0,0,139.89,75.1a88.278,88.278,0,0,1,16.218-6.693,12.569,12.569,0,0,0,8.36-8.247L174.8,27.274a105.585,105.585,0,0,1,13.21,0l10.327,32.887a12.569,12.569,0,0,0,8.36,8.247A87.09,87.09,0,0,1,222.9,75.1a12.525,12.525,0,0,0,11.744.075l30.481-15.9a127.915,127.915,0,0,1,9.4,9.4l-15.9,30.481a12.536,12.536,0,0,0,.075,11.731,88.284,88.284,0,0,1,6.693,16.218,12.569,12.569,0,0,0,8.247,8.36l32.887,10.327c.15,2.294.213,4.487.213,6.605s-.063,4.311-.213,6.605Z" transform="translate(334.467 0)"/><path class="b" d="M283.417,126.807l-21.532-7.645a101.571,101.571,0,0,0-4.224-10.24L267.45,88.3A12.479,12.479,0,0,0,266,75.22a126.137,126.137,0,0,0-21.545-21.557,12.537,12.537,0,0,0-13.1-1.454L210.724,62A100.1,100.1,0,0,0,200.5,57.786l-7.658-21.532a12.562,12.562,0,0,0-10.3-8.247,115.5,115.5,0,0,0-30.419,0,12.52,12.52,0,0,0-10.3,8.247L134.17,57.786a101.578,101.578,0,0,0-10.24,4.224l-20.617-9.789a12.541,12.541,0,0,0-13.085,1.454A126.139,126.139,0,0,0,68.671,75.22a12.554,12.554,0,0,0-1.454,13.1l9.788,20.63a100.11,100.11,0,0,0-4.211,10.227l-21.532,7.658a12.562,12.562,0,0,0-8.247,10.3A122.787,122.787,0,0,0,42,152.325a125.627,125.627,0,0,0,1,15.2,12.52,12.52,0,0,0,8.247,10.3l21.532,7.645a101.58,101.58,0,0,0,4.224,10.24l-9.788,20.617a12.479,12.479,0,0,0,1.454,13.085,126.138,126.138,0,0,0,21.545,21.557,12.557,12.557,0,0,0,13.1,1.454l20.63-9.789a100.1,100.1,0,0,0,10.227,4.211l7.658,21.532a12.562,12.562,0,0,0,10.3,8.247,121.051,121.051,0,0,0,15.2,1.028,125.633,125.633,0,0,0,15.2-1,12.52,12.52,0,0,0,10.3-8.247l7.645-21.532a101.574,101.574,0,0,0,10.24-4.224l20.617,9.789a12.453,12.453,0,0,0,13.085-1.454,126.136,126.136,0,0,0,21.557-21.545,12.554,12.554,0,0,0,1.454-13.1l-9.789-20.63a100.09,100.09,0,0,0,4.211-10.227l21.532-7.658a12.562,12.562,0,0,0,8.247-10.3,121.051,121.051,0,0,0,1.028-15.2,125.626,125.626,0,0,0-1-15.2,12.537,12.537,0,0,0-8.247-10.315ZM267.475,156.9l-19.865,7.056a12.534,12.534,0,0,0-7.884,8.46A74.581,74.581,0,0,1,232.77,189.3a12.563,12.563,0,0,0-.414,11.543l9,18.963q-3.121,3.422-6.53,6.53l-18.963-9a12.567,12.567,0,0,0-11.543.414,74.621,74.621,0,0,1-16.87,6.956,12.577,12.577,0,0,0-8.473,7.883l-7.056,19.865a85.705,85.705,0,0,1-9.149,0l-7.056-19.865a12.533,12.533,0,0,0-8.46-7.883,74.579,74.579,0,0,1-16.882-6.956,12.636,12.636,0,0,0-11.543-.414l-18.963,9q-3.422-3.121-6.53-6.53l9-18.963a12.526,12.526,0,0,0-.414-11.543,74.619,74.619,0,0,1-6.956-16.87,12.577,12.577,0,0,0-7.883-8.473L67.217,156.9c-.1-1.516-.15-3.033-.15-4.575s.05-3.071.125-4.575l19.865-7.069a12.489,12.489,0,0,0,7.871-8.46,74.947,74.947,0,0,1,6.969-16.882,12.562,12.562,0,0,0,.414-11.543l-9-18.963q3.121-3.422,6.53-6.53l18.963,9a12.488,12.488,0,0,0,11.543-.414,74.621,74.621,0,0,1,16.87-6.956,12.578,12.578,0,0,0,8.473-7.883l7.056-19.865a85.69,85.69,0,0,1,9.149,0l7.056,19.865a12.533,12.533,0,0,0,8.46,7.883,74.58,74.58,0,0,1,16.882,6.956,12.49,12.49,0,0,0,11.543.414l18.963-9q3.422,3.121,6.53,6.53l-9,18.963a12.525,12.525,0,0,0,.414,11.543,74.622,74.622,0,0,1,6.956,16.87,12.578,12.578,0,0,0,7.884,8.473l19.865,7.056c.1,1.529.15,3.046.15,4.587s-.05,3.058-.125,4.575Z" transform="translate(461.334 288.336)"/><path class="b" d="M148.867,306.734c76.015,0,137.867-61.852,137.867-137.867S224.882,31,148.867,31,11,92.852,11,168.867,72.852,306.734,148.867,306.734Zm0-250.667a112.8,112.8,0,1,1-112.8,112.8A112.938,112.938,0,0,1,148.867,56.067Z" transform="translate(103.8 334.461)"/><path class="b" d="M2.022,164.52l19.251,16.055A300.189,300.189,0,0,1,252.413,72.287c6.379,0,12.746.363,19.113.765L256.085,88.493l17.722,17.722,37.6-37.6a12.519,12.519,0,0,0,0-17.722l-37.6-37.6L256.085,31.015l17.033,17.033c-6.893-.439-13.8-.827-20.705-.827A325.206,325.206,0,0,0,2.022,164.52Z" transform="translate(0.254 130.24)"/><path class="b" d="M100.667,9a62.667,62.667,0,1,0,62.667,62.667A62.738,62.738,0,0,0,100.667,9Zm0,100.267a37.6,37.6,0,1,1,37.6-37.6A37.646,37.646,0,0,1,100.667,109.267Z" transform="translate(415.2 80.728)"/><path class="b" d="M98.133,33a50.133,50.133,0,1,0,50.133,50.133A50.184,50.184,0,0,0,98.133,33Zm0,75.2A25.067,25.067,0,1,1,123.2,83.133,25.092,25.092,0,0,1,98.133,108.2Z" transform="translate(530.534 357.528)"/><path class="b" d="M143.971,16.785,81.3,4.252a12.505,12.505,0,0,0-14.752,9.826L54.019,76.745,78.6,81.67l6.755-33.74a188.059,188.059,0,0,1,18.562,81.4,185.989,185.989,0,0,1-41.235,117.5l19.565,15.679a213.675,213.675,0,0,0,46.737-133.179,213.338,213.338,0,0,0-22.009-94.389l32.085,6.417Z" transform="translate(599.953 23.06)"/></g></svg>